<svg xmlns="http://www.w3.org/2000/svg" width="501" height="131" viewBox="0 0 501 131">
<defs>
    <style>
      .cls-1 {
        fill: #fff;
        fill-rule: evenodd;
      }
    </style>
  </defs>
  <path class="cls-1" d="M754.288,615.888h32.494a3.9,3.9,0,0,1,3.9,3.9h0a3.9,3.9,0,0,1-3.9,3.9H754.288a3.9,3.9,0,0,1-3.9-3.9h0A3.9,3.9,0,0,1,754.288,615.888Zm-33.693,0h8.8a3.9,3.9,0,0,1,3.9,3.9h0a3.9,3.9,0,0,1-3.9,3.9h-8.8a3.9,3.9,0,0,1-3.9-3.9h0A3.968,3.968,0,0,1,720.6,615.888ZM738.691,602h15.5a3.9,3.9,0,0,1,3.9,3.9h0a3.9,3.9,0,0,1-3.9,3.9h-15.5a3.9,3.9,0,0,1-3.9-3.9h0A3.9,3.9,0,0,1,738.691,602ZM708.8,631.976h28.195a3.9,3.9,0,0,1,3.9,3.9h0a3.9,3.9,0,0,1-3.9,3.9H708.8a3.883,3.883,0,0,1-3.8-3.9h0A3.82,3.82,0,0,1,708.8,631.976Zm74.485,31.277h49.89a3.9,3.9,0,0,1,3.9,3.9h0a3.9,3.9,0,0,1-3.9,3.9h-49.89a3.9,3.9,0,0,1-3.9-3.9h0A3.9,3.9,0,0,1,783.282,663.253ZM702.5,647.964h28.595a3.9,3.9,0,0,1,3.9,3.9h0a3.9,3.9,0,0,1-3.9,3.9H702.5a3.9,3.9,0,0,1-3.9-3.9h0A3.97,3.97,0,0,1,702.5,647.964Zm123.776-15.988h-20.8a3.9,3.9,0,0,0-3.9,3.9h0a3.9,3.9,0,0,0,3.9,3.9h20.8a3.9,3.9,0,0,0,3.9-3.9h0A3.969,3.969,0,0,0,826.274,631.976Zm6.8,15.988h-20.8a3.9,3.9,0,0,0-3.9,3.9h0a3.9,3.9,0,0,0,3.9,3.9h20.8a3.9,3.9,0,0,0,3.9-3.9h0A3.9,3.9,0,0,0,833.073,647.964Zm-80.784,71.147h32.493a3.9,3.9,0,0,0,3.9-3.9h0a3.9,3.9,0,0,0-3.9-3.9H752.289a3.9,3.9,0,0,0-3.9,3.9h0A3.97,3.97,0,0,0,752.289,719.111Zm-34.694,0h19.2a3.9,3.9,0,0,0,3.9-3.9h0a3.9,3.9,0,0,0-3.9-3.9H717.6a3.9,3.9,0,0,0-3.9,3.9h0A4.04,4.04,0,0,0,717.6,719.111Zm16,13.889h36.193a3.9,3.9,0,0,0,3.9-3.9h0a3.9,3.9,0,0,0-3.9-3.9H733.592a3.9,3.9,0,0,0-3.9,3.9h0A3.969,3.969,0,0,0,733.592,733ZM707.2,703.023h9.4a3.9,3.9,0,0,0,3.9-3.9h0a3.9,3.9,0,0,0-3.9-3.9h-9.4a3.9,3.9,0,0,0-3.9,3.9h0A3.9,3.9,0,0,0,707.2,703.023Zm-5-15.988h29.494a3.9,3.9,0,0,0,3.9-3.9h0a3.9,3.9,0,0,0-3.9-3.9H702.2a3.9,3.9,0,0,0-3.9,3.9h0A3.97,3.97,0,0,0,702.2,687.035Zm-2.3-23.782h69.686a3.9,3.9,0,0,1,3.9,3.9h0a3.9,3.9,0,0,1-3.9,3.9H699.9a3.9,3.9,0,0,1-3.9-3.9h0A3.9,3.9,0,0,1,699.9,663.253ZM768.585,602h23.6a3.9,3.9,0,0,1,3.9,3.9h0a3.9,3.9,0,0,1-3.9,3.9h-23.6a3.9,3.9,0,0,1-3.9-3.9h0A3.9,3.9,0,0,1,768.585,602Zm32.594,13.889h14a3.9,3.9,0,0,1,3.9,3.9h0a3.9,3.9,0,0,1-3.9,3.9h-14a3.9,3.9,0,0,1-3.9-3.9h0A3.9,3.9,0,0,1,801.179,615.888Zm-70.286,87.135h9.4a3.9,3.9,0,0,0,3.9-3.9h0a3.9,3.9,0,0,0-3.9-3.9h-9.4a3.9,3.9,0,0,0-3.9,3.9h0A3.9,3.9,0,0,0,730.893,703.023ZM786.982,733h6.7a3.9,3.9,0,0,0,3.9-3.9h0a3.9,3.9,0,0,0-3.9-3.9h-6.7a3.9,3.9,0,0,0-3.9,3.9h0A4.039,4.039,0,0,0,786.982,733Zm98.28-41.868c-1.2-2.5-3.9-3.3-6.5-3.3-3,0-6.4,1.4-6.4,4.8,0,3.7,3.1,4.6,6.5,5,2.2,0.2,3.8.9,3.8,2.4,0,1.8-1.8,2.5-3.8,2.5s-3.9-.8-4.6-2.6l-2.6,1.3c1.2,3,3.8,4,7.2,4,3.7,0,6.9-1.6,6.9-5.2,0-3.9-3.2-4.8-6.6-5.2-2-.2-3.7-0.6-3.7-2.1,0-1.2,1.1-2.2,3.4-2.2a4.844,4.844,0,0,1,3.9,1.8Zm25.1-3.1c-5.7,0-8.5,4.3-8.5,8.694,0,4.3,2.7,8.493,8.5,8.493s8.4-4.3,8.4-8.493c0.1-4.3-2.7-8.694-8.4-8.694h0Zm0,2.9c3.9,0,5.4,3.1,5.4,5.9,0,2.7-1.5,5.6-5.4,5.6s-5.3-2.9-5.4-5.6C904.858,694.03,906.458,690.932,910.357,690.932Zm37.593,9.693a6.017,6.017,0,0,1-4.1,1.7c-4.1,0-5.6-2.8-5.7-5.6a5.435,5.435,0,0,1,5.7-5.7,6.039,6.039,0,0,1,4,1.5l2.1-2a8.324,8.324,0,0,0-6-2.5c-5.9,0-8.7,4.4-8.7,8.694s2.6,8.493,8.7,8.493a8.6,8.6,0,0,0,6.2-2.4Zm18.4-12.291h3.1v16.488h-3.1V688.334Zm32.694,13.49h-9.2v-3.7h8.9v-2.9h-8.9v-3.8h9.2v-3h-12.3v16.487h12.3v-3.1Zm22.1,3h3.09v-13.59h5.2v-2.8h-13.49v2.8h5.2v13.59h0Zm28.39-16.488h-3.7v0.2l6.3,9.493v6.795h3.1v-6.795l6.6-9.493v-0.2h-3.7l-4.4,6.8ZM879.863,655.159q0.15,6.446,3.3,9.293,3.148,3,9.3,3a26.817,26.817,0,0,0,10.2-1.9,14.99,14.99,0,0,1,1,2.8,19.174,19.174,0,0,1,.5,3.2,29.427,29.427,0,0,1-5.5,1.6,34.035,34.035,0,0,1-6.6.5,24.783,24.783,0,0,1-9.1-1.5,15.991,15.991,0,0,1-9.9-10.592,25.989,25.989,0,0,1-1.1-8.094,29.872,29.872,0,0,1,1.1-8.094,17.51,17.51,0,0,1,3.4-6.5,16.761,16.761,0,0,1,5.7-4.4,18.758,18.758,0,0,1,8.2-1.6,17.624,17.624,0,0,1,7.1,1.4,14.828,14.828,0,0,1,5.1,3.8,15.725,15.725,0,0,1,3.1,5.7,23.6,23.6,0,0,1,1.1,7.195,16.165,16.165,0,0,1-.1,2.2c-0.1.8-.1,1.5-0.2,2H879.863Zm19.2-5.6a14.039,14.039,0,0,0-.6-4.1,9.866,9.866,0,0,0-1.7-3.4,7.876,7.876,0,0,0-2.8-2.3,8.573,8.573,0,0,0-4.1-.9c-3.1,0-5.5.9-7.1,2.8a14.552,14.552,0,0,0-3,7.794h19.3v0.1Zm17.3-15.688a9.971,9.971,0,0,1,1.6-.2,8.591,8.591,0,0,1,1.6-.1,8.083,8.083,0,0,1,1.6.1c0.5,0.1,1,.1,1.6.2,0.2,0.8.3,1.8,0.5,3.1a20.053,20.053,0,0,1,.2,3.2,21.287,21.287,0,0,1,1.9-2.6,14.915,14.915,0,0,1,2.7-2.3,16.234,16.234,0,0,1,3.5-1.7,14.89,14.89,0,0,1,4.3-.6c4.5,0,7.7,1.3,9.9,3.8,2.1,2.6,3.2,6.295,3.2,11.291v24.682a11.053,11.053,0,0,1-1.9.2,18.272,18.272,0,0,1-3.8,0c-0.7-.1-1.3-0.1-1.9-0.2V650.163c0-3.6-.6-6.2-1.7-7.894s-2.9-2.5-5.3-2.5a10.57,10.57,0,0,0-4,.8,7.83,7.83,0,0,0-3.3,2.4,11.543,11.543,0,0,0-2.3,4.1,18.222,18.222,0,0,0-.9,6.095v19.686a11.057,11.057,0,0,1-1.9.2,18.091,18.091,0,0,1-3.8,0c-0.7-.1-1.3-0.1-1.9-0.2V633.875h0.1Zm43.791-16.688a11.18,11.18,0,0,1,1.9-.2,18.091,18.091,0,0,1,3.8,0c0.7,0.1,1.3.1,1.9,0.2V639.77a27.177,27.177,0,0,1,1.7-2.3,10.666,10.666,0,0,1,2.5-2.2,15.416,15.416,0,0,1,3.4-1.7,14.414,14.414,0,0,1,4.3-.6c4.5,0,7.8,1.3,9.9,3.8,2.2,2.6,3.2,6.295,3.2,11.291v24.682a11.076,11.076,0,0,1-1.9.2,18.272,18.272,0,0,1-3.8,0c-0.7-.1-1.3-0.1-1.9-0.2V650.163c0-3.6-.6-6.2-1.8-7.894a6.14,6.14,0,0,0-5.4-2.5,10.016,10.016,0,0,0-3.9.7,7.623,7.623,0,0,0-3.3,2.3,10.712,10.712,0,0,0-2.3,4.1,18.4,18.4,0,0,0-.8,6.1v19.985a11.18,11.18,0,0,1-1.9.2,12.744,12.744,0,0,1-1.9.1,12.134,12.134,0,0,1-1.8-.1c-0.7-.1-1.3-0.1-1.9-0.2V617.187h0Zm64.583,37.372c-0.8-.1-1.7-0.2-2.9-0.3s-2.19-.2-2.99-0.2a13.215,13.215,0,0,0-7.2,1.7,6.192,6.192,0,0,0-2.5,5.3,7.376,7.376,0,0,0,.8,3.6,6.622,6.622,0,0,0,2.1,2,6.51,6.51,0,0,0,2.8.8c1,0.1,2,.2,2.9.2,1.2,0,2.4-.1,3.6-0.2a16.174,16.174,0,0,0,3.29-.6V654.559h0.1Zm0-7.394c0-3-.8-5.1-2.3-6.195-1.49-1.2-3.69-1.7-6.59-1.7a26.666,26.666,0,0,0-5,.4,36.665,36.665,0,0,0-4.5,1.1,11.572,11.572,0,0,1-1.4-6,29.968,29.968,0,0,1,5.7-1.3,42.808,42.808,0,0,1,6-.5c5.1,0,8.89,1.2,11.49,3.5s3.9,6,3.9,10.992v24.381c-1.8.4-3.9,0.8-6.5,1.3a48.853,48.853,0,0,1-7.69.6,27.628,27.628,0,0,1-6.7-.7,14.875,14.875,0,0,1-5.1-2.2,9.368,9.368,0,0,1-3.2-3.9,12.6,12.6,0,0,1-1.1-5.7,11.414,11.414,0,0,1,1.3-5.7,12.846,12.846,0,0,1,3.6-4.1,15.474,15.474,0,0,1,5.2-2.4,25.071,25.071,0,0,1,6.2-.8c1.6,0,2.9,0,3.99.1,1,0.1,1.9.2,2.6,0.3v-1.5h0.1Zm18.6-13.29a9.971,9.971,0,0,1,1.6-.2,8.6,8.6,0,0,1,1.6-.1,8.083,8.083,0,0,1,1.6.1c0.5,0.1,1,.1,1.6.2,0.2,0.8.3,1.8,0.5,3.1a20.053,20.053,0,0,1,.2,3.2,21.4,21.4,0,0,1,1.9-2.6,14.915,14.915,0,0,1,2.7-2.3,16.266,16.266,0,0,1,3.5-1.7,14.9,14.9,0,0,1,4.3-.6c4.5,0,7.7,1.3,9.89,3.8,2.1,2.6,3.2,6.295,3.2,11.291v24.682a11.076,11.076,0,0,1-1.9.2,18.186,18.186,0,0,1-3.79,0c-0.7-.1-1.3-0.1-1.9-0.2V650.163c0-3.6-.6-6.2-1.7-7.894s-2.9-2.5-5.3-2.5a10.571,10.571,0,0,0-4,.8,7.833,7.833,0,0,0-3.3,2.4,11.543,11.543,0,0,0-2.3,4.1,18.222,18.222,0,0,0-.9,6.095v19.686a11.079,11.079,0,0,1-1.9.2,18.1,18.1,0,0,1-3.8,0c-0.7-.1-1.3-0.1-1.9-0.2V633.875h0.1Zm69.89,32.176a11.559,11.559,0,0,1,1.1,2.7,12.551,12.551,0,0,1,.5,3.3,27.319,27.319,0,0,1-10.2,1.7c-6.5,0-11.4-1.8-14.7-5.5s-4.9-8.594-4.9-14.789a25.3,25.3,0,0,1,1.2-7.994,18.748,18.748,0,0,1,3.6-6.5,16.48,16.48,0,0,1,6-4.3,19.536,19.536,0,0,1,8.3-1.6,28.265,28.265,0,0,1,10.2,1.6,16.871,16.871,0,0,1-.3,3,13.162,13.162,0,0,1-.9,3,24.888,24.888,0,0,0-8.5-1.3q-5.85,0-8.7,3.9a16.868,16.868,0,0,0-2.9,10.192c0,4.9,1.1,8.394,3.3,10.692s5.2,3.4,9,3.4a27.66,27.66,0,0,0,4.2-.3C1110.62,666.95,1111.92,666.55,1113.22,666.051Zm14.79-10.892q0.15,6.446,3.3,9.293,3.15,3,9.3,3a26.824,26.824,0,0,0,10.2-1.9,15.059,15.059,0,0,1,1,2.8,19.174,19.174,0,0,1,.5,3.2,29.459,29.459,0,0,1-5.5,1.6,34.056,34.056,0,0,1-6.6.5,24.8,24.8,0,0,1-9.1-1.5,15.949,15.949,0,0,1-9.89-10.592,25.989,25.989,0,0,1-1.1-8.094,29.872,29.872,0,0,1,1.1-8.094,17.509,17.509,0,0,1,3.39-6.5,16.765,16.765,0,0,1,5.7-4.4,18.767,18.767,0,0,1,8.2-1.6,17.629,17.629,0,0,1,7.1,1.4,14.823,14.823,0,0,1,5.1,3.8,15.712,15.712,0,0,1,3.1,5.7,23.6,23.6,0,0,1,1.1,7.195,16.165,16.165,0,0,1-.1,2.2c-0.1.8-.1,1.5-0.2,2h-26.6Zm19.3-5.6a14.006,14.006,0,0,0-.6-4.1,9.866,9.866,0,0,0-1.7-3.4,7.876,7.876,0,0,0-2.8-2.3,8.58,8.58,0,0,0-4.1-.9c-3.1,0-5.5.9-7.1,2.8a14.552,14.552,0,0,0-3,7.794h19.3v0.1Zm42.19-32.376a11.18,11.18,0,0,1,1.9-.2,12.134,12.134,0,0,1,1.8-.1,12.751,12.751,0,0,1,1.9.1c0.7,0.1,1.3.1,1.9,0.2v54.559a53.535,53.535,0,0,1-14.5,2,28.81,28.81,0,0,1-7.8-1,15.825,15.825,0,0,1-6.39-3.4,16.033,16.033,0,0,1-4.3-6.095,22.613,22.613,0,0,1-1.6-9.193,26.248,26.248,0,0,1,1.4-8.594A18.339,18.339,0,0,1,1174,634.574a20.746,20.746,0,0,1,8-1.5,27.963,27.963,0,0,1,4,.3,26.094,26.094,0,0,1,3.5.8V617.187h0Zm0,23.283a15.85,15.85,0,0,0-3.3-.9,22.526,22.526,0,0,0-3.8-.3,12.686,12.686,0,0,0-5.4,1.1,11.521,11.521,0,0,0-3.8,3.1,13.761,13.761,0,0,0-2.19,4.7,22.173,22.173,0,0,0-.7,5.9c0.1,4.8,1.2,8.194,3.39,10.292s5.3,3.1,9.1,3.1c1.3,0,2.5-.1,3.6-0.2a13.282,13.282,0,0,0,3-.6V640.47h0.1Z" transform="translate(-696 -602)"/>
</svg>
