<?xml version="1.0" encoding="utf-8"?>
<!-- Generator: Adobe Illustrator 22.1.0, SVG Export Plug-In . SVG Version: 6.00 Build 0)  -->
<svg version="1.1" xmlns="http://www.w3.org/2000/svg" xmlns:xlink="http://www.w3.org/1999/xlink" x="0px" y="0px"
	 viewBox="0 0 501 131" style="enable-background:new 0 0 501 131;" xml:space="preserve">
<style type="text/css">
	.st0{fill:#072D45;}
	.st1{fill-rule:evenodd;clip-rule:evenodd;fill:url(#SVGID_1_);}
	.st2{fill-rule:evenodd;clip-rule:evenodd;fill:url(#SVGID_2_);}
	.st3{fill-rule:evenodd;clip-rule:evenodd;fill:url(#SVGID_3_);}
	.st4{fill-rule:evenodd;clip-rule:evenodd;fill:url(#SVGID_4_);}
	.st5{fill-rule:evenodd;clip-rule:evenodd;fill:url(#SVGID_5_);}
	.st6{fill-rule:evenodd;clip-rule:evenodd;fill:url(#SVGID_6_);}
	.st7{fill-rule:evenodd;clip-rule:evenodd;fill:url(#SVGID_7_);}
	.st8{fill-rule:evenodd;clip-rule:evenodd;fill:url(#SVGID_8_);}
	.st9{fill-rule:evenodd;clip-rule:evenodd;fill:url(#SVGID_9_);}
	.st10{fill-rule:evenodd;clip-rule:evenodd;fill:url(#SVGID_10_);}
	.st11{fill-rule:evenodd;clip-rule:evenodd;fill:url(#SVGID_11_);}
	.st12{fill-rule:evenodd;clip-rule:evenodd;fill:url(#SVGID_12_);}
	.st13{fill-rule:evenodd;clip-rule:evenodd;fill:url(#SVGID_13_);}
	.st14{fill-rule:evenodd;clip-rule:evenodd;fill:url(#SVGID_14_);}
	.st15{fill-rule:evenodd;clip-rule:evenodd;fill:url(#SVGID_15_);}
	.st16{fill-rule:evenodd;clip-rule:evenodd;fill:url(#SVGID_16_);}
	.st17{fill-rule:evenodd;clip-rule:evenodd;fill:url(#SVGID_17_);}
	.st18{fill-rule:evenodd;clip-rule:evenodd;fill:url(#SVGID_18_);}
</style>
<g id="Layer_1">
	<path class="st0" d="M189.3,89.1c-1.2-2.5-3.9-3.3-6.5-3.3c-3,0-6.4,1.4-6.4,4.8c0,3.7,3.1,4.6,6.5,5c2.2,0.2,3.8,0.9,3.8,2.4
		c0,1.8-1.8,2.5-3.8,2.5s-3.9-0.8-4.6-2.6l-2.6,1.3c1.2,3,3.8,4,7.2,4c3.7,0,6.9-1.6,6.9-5.2c0-3.9-3.2-4.8-6.6-5.2
		c-2-0.2-3.7-0.6-3.7-2.1c0-1.2,1.1-2.2,3.4-2.2c1.5,0,3,0.6,3.9,1.8L189.3,89.1z M214.4,86c-5.7,0-8.5,4.3-8.5,8.7
		c0,4.3,2.7,8.5,8.5,8.5s8.4-4.3,8.4-8.5C222.9,90.4,220.1,86,214.4,86L214.4,86L214.4,86z M214.4,88.9c3.9,0,5.4,3.1,5.4,5.9
		c0,2.7-1.5,5.6-5.4,5.6s-5.3-2.9-5.4-5.6C208.9,92,210.5,88.9,214.4,88.9L214.4,88.9z M252,98.6c-1.1,1.1-2.6,1.7-4.1,1.7
		c-4.1,0-5.6-2.8-5.7-5.6c-0.2-3,2.2-5.5,5.2-5.7c0.2,0,0.4,0,0.5,0c1.5,0,2.9,0.5,4,1.5l2.1-2c-1.6-1.6-3.7-2.5-6-2.5
		c-5.9,0-8.7,4.4-8.7,8.7s2.6,8.5,8.7,8.5c2.3,0.1,4.5-0.8,6.2-2.4L252,98.6z M270.4,86.3h3.1v16.5h-3.1V86.3L270.4,86.3z M303,99.8
		h-9.2v-3.7h8.9v-2.9h-8.9v-3.8h9.2v-3h-12.3v16.5H303V99.8L303,99.8z M325.1,102.8h3.1V89.2h5.2v-2.8h-13.5v2.8h5.2L325.1,102.8
		L325.1,102.8L325.1,102.8z M353.5,86.3h-3.7v0.2l6.3,9.5v6.8h3.1V96l6.6-9.5v-0.2h-3.7l-4.4,6.8L353.5,86.3z M183.9,53.2
		c0.1,4.3,1.2,7.4,3.3,9.3c2.1,2,5.2,3,9.3,3c3.5,0,7-0.6,10.2-1.9c0.4,0.9,0.8,1.8,1,2.8c0.3,1.1,0.4,2.1,0.5,3.2
		c-1.8,0.7-3.6,1.2-5.5,1.6c-2.2,0.4-4.4,0.5-6.6,0.5c-3.1,0.1-6.2-0.4-9.1-1.5c-4.8-1.7-8.5-5.7-9.9-10.6c-0.8-2.6-1.2-5.4-1.1-8.1
		c0-2.7,0.4-5.5,1.1-8.1c0.7-2.4,1.8-4.6,3.4-6.5c1.6-1.9,3.5-3.4,5.7-4.4c2.6-1.1,5.4-1.7,8.2-1.6c2.4,0,4.9,0.4,7.1,1.4
		c2,0.9,3.7,2.2,5.1,3.8c1.4,1.7,2.5,3.6,3.1,5.7c0.7,2.3,1.1,4.8,1.1,7.2c0,0.7,0,1.5-0.1,2.2c-0.1,0.8-0.1,1.5-0.2,2L183.9,53.2
		L183.9,53.2z M203.1,47.6c0-1.4-0.2-2.8-0.6-4.1c-0.3-1.2-0.9-2.4-1.7-3.4c-0.7-1-1.7-1.8-2.8-2.3c-1.3-0.6-2.7-0.9-4.1-0.9
		c-3.1,0-5.5,0.9-7.1,2.8c-1.7,2.2-2.8,5-3,7.8h19.3L203.1,47.6L203.1,47.6z M220.4,31.9c0.5-0.1,1.1-0.2,1.6-0.2
		c0.5-0.1,1.1-0.1,1.6-0.1c0.5,0,1.1,0,1.6,0.1c0.5,0.1,1,0.1,1.6,0.2c0.2,0.8,0.3,1.8,0.5,3.1c0.2,1.1,0.2,2.1,0.2,3.2
		c0.6-0.9,1.2-1.8,1.9-2.6c0.8-0.9,1.7-1.6,2.7-2.3c1.1-0.7,2.3-1.3,3.5-1.7c1.4-0.4,2.8-0.6,4.3-0.6c4.5,0,7.7,1.3,9.9,3.8
		c2.1,2.6,3.2,6.3,3.2,11.3v24.7c-0.6,0.1-1.3,0.2-1.9,0.2c-1.3,0.1-2.5,0.1-3.8,0c-0.7-0.1-1.3-0.1-1.9-0.2V48.2
		c0-3.6-0.6-6.2-1.7-7.9s-2.9-2.5-5.3-2.5c-1.4,0-2.7,0.3-4,0.8c-1.3,0.5-2.4,1.3-3.3,2.4c-1,1.2-1.8,2.6-2.3,4.1
		c-0.6,2-0.9,4-0.9,6.1v19.7c-0.6,0.1-1.3,0.2-1.9,0.2c-1.3,0.1-2.5,0.1-3.8,0c-0.7-0.1-1.3-0.1-1.9-0.2v-39L220.4,31.9L220.4,31.9z
		 M264.2,15.2c0.6-0.1,1.3-0.2,1.9-0.2c1.3-0.1,2.5-0.1,3.8,0c0.7,0.1,1.3,0.1,1.9,0.2v22.6c0.5-0.8,1.1-1.6,1.7-2.3
		c0.7-0.9,1.6-1.6,2.5-2.2c1.1-0.7,2.2-1.3,3.4-1.7c1.4-0.4,2.8-0.6,4.3-0.6c4.5,0,7.8,1.3,9.9,3.8c2.2,2.6,3.2,6.3,3.2,11.3v24.7
		c-0.6,0.1-1.3,0.2-1.9,0.2c-1.3,0.1-2.5,0.1-3.8,0c-0.7-0.1-1.3-0.1-1.9-0.2V48.2c0-3.6-0.6-6.2-1.8-7.9c-1.2-1.7-3.3-2.7-5.4-2.5
		c-1.3,0-2.7,0.2-3.9,0.7c-1.3,0.5-2.4,1.3-3.3,2.3c-1.1,1.2-1.8,2.6-2.3,4.1c-0.6,2-0.9,4-0.8,6.1v20c-0.6,0.1-1.3,0.2-1.9,0.2
		c-0.6,0.1-1.3,0.1-1.9,0.1c-0.6,0-1.2,0-1.8-0.1c-0.7-0.1-1.3-0.1-1.9-0.2V15.2L264.2,15.2L264.2,15.2z M328.7,52.6
		c-0.8-0.1-1.7-0.2-2.9-0.3s-2.2-0.2-3-0.2c-2.5-0.1-5,0.5-7.2,1.7c-1.7,1.2-2.6,3.2-2.5,5.3c0,1.2,0.2,2.5,0.8,3.6
		c0.5,0.8,1.3,1.5,2.1,2c0.9,0.5,1.8,0.7,2.8,0.8c1,0.1,2,0.2,2.9,0.2c1.2,0,2.4-0.1,3.6-0.2c1.1-0.1,2.2-0.3,3.3-0.6V52.6
		L328.7,52.6L328.7,52.6z M328.7,45.2c0-3-0.8-5.1-2.3-6.2c-1.5-1.2-3.7-1.7-6.6-1.7c-1.7,0-3.3,0.1-5,0.4c-1.5,0.3-3,0.6-4.5,1.1
		c-1-1.8-1.5-3.9-1.4-6c1.9-0.6,3.8-1.1,5.7-1.3c2-0.3,4-0.5,6-0.5c5.1,0,8.9,1.2,11.5,3.5s3.9,6,3.9,11v24.4
		c-1.8,0.4-3.9,0.8-6.5,1.3c-2.5,0.4-5.1,0.6-7.7,0.6c-2.3,0-4.5-0.2-6.7-0.7c-1.8-0.4-3.6-1.2-5.1-2.2c-1.4-1-2.5-2.3-3.2-3.9
		c-0.8-1.8-1.2-3.7-1.1-5.7c-0.1-2,0.4-3.9,1.3-5.7c0.9-1.6,2.1-3,3.6-4.1c1.6-1.1,3.3-1.9,5.2-2.4c2-0.5,4.1-0.8,6.2-0.8
		c1.6,0,2.9,0,4,0.1c1,0.1,1.9,0.2,2.6,0.3L328.7,45.2L328.7,45.2L328.7,45.2z M347.3,31.9c0.5-0.1,1.1-0.2,1.6-0.2
		c0.5-0.1,1.1-0.1,1.6-0.1c0.5,0,1.1,0,1.6,0.1c0.5,0.1,1,0.1,1.6,0.2c0.2,0.8,0.3,1.8,0.5,3.1c0.2,1.1,0.2,2.1,0.2,3.2
		c0.6-0.9,1.2-1.8,1.9-2.6c0.8-0.9,1.7-1.6,2.7-2.3c1.1-0.7,2.3-1.3,3.5-1.7c1.4-0.4,2.8-0.6,4.3-0.6c4.5,0,7.7,1.3,9.9,3.8
		c2.1,2.6,3.2,6.3,3.2,11.3v24.7c-0.6,0.1-1.3,0.2-1.9,0.2c-1.3,0.1-2.5,0.1-3.8,0c-0.7-0.1-1.3-0.1-1.9-0.2V48.2
		c0-3.6-0.6-6.2-1.7-7.9s-2.9-2.5-5.3-2.5c-1.4,0-2.7,0.3-4,0.8c-1.3,0.5-2.4,1.3-3.3,2.4c-1,1.2-1.8,2.6-2.3,4.1
		c-0.6,2-0.9,4-0.9,6.1v19.7c-0.6,0.1-1.3,0.2-1.9,0.2c-1.3,0.1-2.5,0.1-3.8,0c-0.7-0.1-1.3-0.1-1.9-0.2v-39L347.3,31.9L347.3,31.9z
		 M417.2,64c0.5,0.8,0.8,1.8,1.1,2.7c0.3,1.1,0.5,2.2,0.5,3.3c-3.3,1.2-6.7,1.8-10.2,1.7c-6.5,0-11.4-1.8-14.7-5.5
		s-4.9-8.6-4.9-14.8c0-2.7,0.4-5.4,1.2-8c0.8-2.4,2-4.6,3.6-6.5c1.6-1.9,3.7-3.3,6-4.3c2.6-1.1,5.4-1.7,8.3-1.6
		c3.5-0.1,6.9,0.4,10.2,1.6c0,1-0.1,2-0.3,3c-0.2,1-0.5,2-0.9,3c-2.7-0.9-5.6-1.4-8.5-1.3c-3.9,0-6.8,1.3-8.7,3.9
		c-2,3-3.1,6.6-2.9,10.2c0,4.9,1.1,8.4,3.3,10.7s5.2,3.4,9,3.4c1.4,0,2.8-0.1,4.2-0.3C414.6,65,415.9,64.5,417.2,64L417.2,64z
		 M432,53.2c0.1,4.3,1.2,7.4,3.3,9.3c2.1,2,5.2,3,9.3,3c3.5,0,7-0.6,10.2-1.9c0.4,0.9,0.8,1.8,1,2.8c0.3,1.1,0.4,2.1,0.5,3.2
		c-1.8,0.7-3.6,1.2-5.5,1.6c-2.2,0.4-4.4,0.5-6.6,0.5c-3.1,0.1-6.2-0.4-9.1-1.5c-4.8-1.7-8.5-5.7-9.9-10.6c-0.8-2.6-1.2-5.4-1.1-8.1
		c0-2.7,0.4-5.5,1.1-8.1c0.7-2.4,1.8-4.6,3.4-6.5c1.6-1.9,3.5-3.4,5.7-4.4c2.6-1.1,5.4-1.7,8.2-1.6c2.4,0,4.9,0.4,7.1,1.4
		c2,0.9,3.7,2.2,5.1,3.8c1.4,1.7,2.5,3.6,3.1,5.7c0.7,2.3,1.1,4.8,1.1,7.2c0,0.7,0,1.5-0.1,2.2c-0.1,0.8-0.1,1.5-0.2,2L432,53.2
		L432,53.2z M451.3,47.6c0-1.4-0.2-2.8-0.6-4.1c-0.3-1.2-0.9-2.4-1.7-3.4c-0.7-1-1.7-1.8-2.8-2.3c-1.3-0.6-2.7-0.9-4.1-0.9
		c-3.1,0-5.5,0.9-7.1,2.8c-1.7,2.2-2.8,5-3,7.8h19.3L451.3,47.6L451.3,47.6z M493.5,15.2c0.6-0.1,1.3-0.2,1.9-0.2
		c0.6-0.1,1.2-0.1,1.8-0.1c0.6,0,1.3,0,1.9,0.1c0.7,0.1,1.3,0.1,1.9,0.2v54.6c-4.7,1.3-9.6,2-14.5,2c-2.6,0-5.3-0.3-7.8-1
		c-2.4-0.6-4.6-1.8-6.4-3.4c-1.9-1.7-3.4-3.8-4.3-6.1c-1.2-2.9-1.7-6.1-1.6-9.2c0-2.9,0.5-5.8,1.4-8.6c1.7-4.9,5.4-8.9,10.2-10.9
		c2.5-1,5.3-1.5,8-1.5c1.3,0,2.7,0.1,4,0.3c1.2,0.2,2.4,0.5,3.5,0.8L493.5,15.2L493.5,15.2L493.5,15.2z M493.5,38.5
		c-1.1-0.4-2.2-0.7-3.3-0.9c-1.3-0.2-2.5-0.3-3.8-0.3c-1.9,0-3.7,0.3-5.4,1.1c-1.5,0.7-2.8,1.8-3.8,3.1c-1,1.4-1.8,3-2.2,4.7
		c-0.5,1.9-0.7,3.9-0.7,5.9c0.1,4.8,1.2,8.2,3.4,10.3s5.3,3.1,9.1,3.1c1.3,0,2.5-0.1,3.6-0.2c1-0.1,2-0.3,3-0.6V38.5L493.5,38.5
		L493.5,38.5z"/>
</g>
<g id="Layer_2">
	<g>
		<g>
			<linearGradient id="SVGID_1_" gradientUnits="userSpaceOnUse" x1="-6.2257" y1="-81.8781" x2="242.3204" y2="224.6633">
				<stop  offset="0" style="stop-color:#1FC3F3"/>
				<stop  offset="0.2112" style="stop-color:#26C0D4"/>
				<stop  offset="0.6701" style="stop-color:#37BA85"/>
				<stop  offset="1" style="stop-color:#44B549"/>
			</linearGradient>
			<path class="st1" d="M58.3,13.9h32.5c2.1,0,3.9,1.7,3.9,3.9v0c0,2.1-1.7,3.9-3.9,3.9H58.3c-2.1,0-3.9-1.7-3.9-3.9v0
				C54.5,15.7,56.2,13.9,58.3,13.9z"/>
			<linearGradient id="SVGID_2_" gradientUnits="userSpaceOnUse" x1="-28.908" y1="-53.7871" x2="194.4035" y2="221.6316">
				<stop  offset="0" style="stop-color:#1FC3F3"/>
				<stop  offset="0.2112" style="stop-color:#26C0D4"/>
				<stop  offset="0.6701" style="stop-color:#37BA85"/>
				<stop  offset="1" style="stop-color:#44B549"/>
			</linearGradient>
			<path class="st2" d="M24.7,13.9h8.8c2.1,0,3.9,1.7,3.9,3.9l0,0c0,2.1-1.7,3.9-3.9,3.9h-8.8c-2.1,0-3.9-1.7-3.9-3.9l0,0
				C20.9,15.7,22.6,13.9,24.7,13.9z"/>
			<linearGradient id="SVGID_3_" gradientUnits="userSpaceOnUse" x1="-11.7545" y1="-72.8822" x2="222.3092" y2="215.7977">
				<stop  offset="0" style="stop-color:#1FC3F3"/>
				<stop  offset="0.2112" style="stop-color:#26C0D4"/>
				<stop  offset="0.6701" style="stop-color:#37BA85"/>
				<stop  offset="1" style="stop-color:#44B549"/>
			</linearGradient>
			<path class="st3" d="M42.8,0h15.5c2.1,0,3.9,1.7,3.9,3.9l0,0c0,2.1-1.7,3.9-3.9,3.9H42.8c-2.1,0-3.9-1.7-3.9-3.9l0,0
				C38.9,1.8,40.7,0,42.8,0z"/>
			<linearGradient id="SVGID_4_" gradientUnits="userSpaceOnUse" x1="-43.1739" y1="-52.62" x2="202.6875" y2="250.6103">
				<stop  offset="0" style="stop-color:#1FC3F3"/>
				<stop  offset="0.2112" style="stop-color:#26C0D4"/>
				<stop  offset="0.6701" style="stop-color:#37BA85"/>
				<stop  offset="1" style="stop-color:#44B549"/>
			</linearGradient>
			<path class="st4" d="M12.9,30H41c2.1,0,3.9,1.7,3.9,3.9l0,0c0,2.1-1.7,3.9-3.9,3.9H12.9C10.8,37.8,9,36,9,33.9l0,0
				C9,31.8,10.8,30,12.9,30z"/>
			<linearGradient id="SVGID_5_" gradientUnits="userSpaceOnUse" x1="-6.1777" y1="-80.8717" x2="249.5518" y2="234.5293">
				<stop  offset="0" style="stop-color:#1FC3F3"/>
				<stop  offset="0.2112" style="stop-color:#26C0D4"/>
				<stop  offset="0.6701" style="stop-color:#37BA85"/>
				<stop  offset="1" style="stop-color:#44B549"/>
			</linearGradient>
			<path class="st5" d="M87.3,61.3h49.9c2.1,0,3.9,1.7,3.9,3.9l0,0c0,2.1-1.7,3.9-3.9,3.9H87.3c-2.1,0-3.9-1.7-3.9-3.9l0,0
				C83.4,63.1,85.2,61.3,87.3,61.3z"/>
			<linearGradient id="SVGID_6_" gradientUnits="userSpaceOnUse" x1="-54.1572" y1="-42.6784" x2="192.0013" y2="260.9184">
				<stop  offset="0" style="stop-color:#1FC3F3"/>
				<stop  offset="0.2112" style="stop-color:#26C0D4"/>
				<stop  offset="0.6701" style="stop-color:#37BA85"/>
				<stop  offset="1" style="stop-color:#44B549"/>
			</linearGradient>
			<path class="st6" d="M6.6,46h28.6c2.1,0,3.9,1.7,3.9,3.9l0,0c0,2.1-1.7,3.9-3.9,3.9H6.6c-2.1,0-3.9-1.7-3.9-3.9l0,0
				C2.7,47.8,4.5,46,6.6,46z"/>
			<linearGradient id="SVGID_7_" gradientUnits="userSpaceOnUse" x1="19.4418" y1="-90.0012" x2="259.3779" y2="205.9213">
				<stop  offset="0" style="stop-color:#1FC3F3"/>
				<stop  offset="0.2112" style="stop-color:#26C0D4"/>
				<stop  offset="0.6701" style="stop-color:#37BA85"/>
				<stop  offset="1" style="stop-color:#44B549"/>
			</linearGradient>
			<path class="st7" d="M130.3,30h-20.7c-2.1,0-3.9,1.7-3.9,3.9l0,0c0,2.1,1.7,3.9,3.9,3.9h20.7c2.1,0,3.9-1.7,3.9-3.9l0,0
				C134.1,31.8,132.4,30,130.3,30z"/>
			<linearGradient id="SVGID_8_" gradientUnits="userSpaceOnUse" x1="17.151" y1="-85.297" x2="257.0828" y2="210.6201">
				<stop  offset="0" style="stop-color:#1FC3F3"/>
				<stop  offset="0.2112" style="stop-color:#26C0D4"/>
				<stop  offset="0.6701" style="stop-color:#37BA85"/>
				<stop  offset="1" style="stop-color:#44B549"/>
			</linearGradient>
			<path class="st8" d="M137.1,46h-20.7c-2.1,0-3.9,1.7-3.9,3.9l0,0c0,2.1,1.7,3.9,3.9,3.9h20.7c2.1,0,3.9-1.7,3.9-3.9l0,0
				C141,47.8,139.3,46,137.1,46z"/>
			<linearGradient id="SVGID_9_" gradientUnits="userSpaceOnUse" x1="-49.4971" y1="-37.3425" x2="199.0485" y2="269.1985">
				<stop  offset="0" style="stop-color:#1FC3F3"/>
				<stop  offset="0.2112" style="stop-color:#26C0D4"/>
				<stop  offset="0.6701" style="stop-color:#37BA85"/>
				<stop  offset="1" style="stop-color:#44B549"/>
			</linearGradient>
			<path class="st9" d="M56.4,117.2h32.5c2.1,0,3.9-1.7,3.9-3.9l0,0c0-2.1-1.7-3.9-3.9-3.9H56.4c-2.1,0-3.9,1.7-3.9,3.9l0,0
				C52.5,115.4,54.3,117.2,56.4,117.2z"/>
			<linearGradient id="SVGID_10_" gradientUnits="userSpaceOnUse" x1="-71.6796" y1="-13.7253" x2="166.6727" y2="280.2437">
				<stop  offset="0" style="stop-color:#1FC3F3"/>
				<stop  offset="0.2112" style="stop-color:#26C0D4"/>
				<stop  offset="0.6701" style="stop-color:#37BA85"/>
				<stop  offset="1" style="stop-color:#44B549"/>
			</linearGradient>
			<path class="st10" d="M21.7,117.2h19.2c2.1,0,3.9-1.7,3.9-3.9l0,0c0-2.1-1.7-3.9-3.9-3.9H21.7c-2.1,0-3.9,1.7-3.9,3.9l0,0
				C17.9,115.4,19.6,117.2,21.7,117.2z"/>
			<linearGradient id="SVGID_11_" gradientUnits="userSpaceOnUse" x1="-67.41" y1="-24.6898" x2="183.0166" y2="284.171">
				<stop  offset="0" style="stop-color:#1FC3F3"/>
				<stop  offset="0.2112" style="stop-color:#26C0D4"/>
				<stop  offset="0.6701" style="stop-color:#37BA85"/>
				<stop  offset="1" style="stop-color:#44B549"/>
			</linearGradient>
			<path class="st11" d="M37.7,131h36.1c2.1,0,3.9-1.7,3.9-3.9l0,0c0-2.1-1.7-3.9-3.9-3.9H37.7c-2.1,0-3.9,1.7-3.9,3.9l0,0
				C33.8,129.3,35.5,131,37.7,131z"/>
			<linearGradient id="SVGID_12_" gradientUnits="userSpaceOnUse" x1="-69.696" y1="-8.4525" x2="154.8003" y2="268.4273">
				<stop  offset="0" style="stop-color:#1FC3F3"/>
				<stop  offset="0.2112" style="stop-color:#26C0D4"/>
				<stop  offset="0.6701" style="stop-color:#37BA85"/>
				<stop  offset="1" style="stop-color:#44B549"/>
			</linearGradient>
			<path class="st12" d="M11.3,101.1h9.4c2.1,0,3.9-1.7,3.9-3.9l0,0c0-2.1-1.7-3.9-3.9-3.9h-9.4c-2.1,0-3.9,1.7-3.9,3.9l0,0
				C7.4,99.3,9.1,101.1,11.3,101.1z"/>
			<linearGradient id="SVGID_13_" gradientUnits="userSpaceOnUse" x1="-67.905" y1="-28.5292" x2="178.8397" y2="275.7906">
				<stop  offset="0" style="stop-color:#1FC3F3"/>
				<stop  offset="0.2112" style="stop-color:#26C0D4"/>
				<stop  offset="0.6701" style="stop-color:#37BA85"/>
				<stop  offset="1" style="stop-color:#44B549"/>
			</linearGradient>
			<path class="st13" d="M6.3,85.1h29.5c2.1,0,3.9-1.7,3.9-3.9l0,0c0-2.1-1.7-3.9-3.9-3.9H6.3c-2.1,0-3.9,1.7-3.9,3.9l0,0
				C2.4,83.3,4.2,85.1,6.3,85.1z"/>
			<linearGradient id="SVGID_14_" gradientUnits="userSpaceOnUse" x1="-54.3594" y1="-49.684" x2="206.0608" y2="271.5023">
				<stop  offset="0" style="stop-color:#1FC3F3"/>
				<stop  offset="0.2112" style="stop-color:#26C0D4"/>
				<stop  offset="0.6701" style="stop-color:#37BA85"/>
				<stop  offset="1" style="stop-color:#44B549"/>
			</linearGradient>
			<path class="st14" d="M4,61.3h69.6c2.1,0,3.9,1.7,3.9,3.9l0,0c0,2.1-1.7,3.9-3.9,3.9H4c-2.1,0-3.9-1.7-3.9-3.9l0,0
				C0.1,63.1,1.8,61.3,4,61.3z"/>
			<linearGradient id="SVGID_15_" gradientUnits="userSpaceOnUse" x1="8.1299" y1="-90.2117" x2="250.6146" y2="208.8541">
				<stop  offset="0" style="stop-color:#1FC3F3"/>
				<stop  offset="0.2112" style="stop-color:#26C0D4"/>
				<stop  offset="0.6701" style="stop-color:#37BA85"/>
				<stop  offset="1" style="stop-color:#44B549"/>
			</linearGradient>
			<path class="st15" d="M72.6,0h23.6c2.1,0,3.9,1.7,3.9,3.9l0,0c0,2.1-1.7,3.9-3.9,3.9H72.6c-2.1,0-3.9-1.7-3.9-3.9l0,0
				C68.8,1.8,70.5,0,72.6,0z"/>
			<linearGradient id="SVGID_16_" gradientUnits="userSpaceOnUse" x1="24.2339" y1="-90.6959" x2="256.2542" y2="195.4636">
				<stop  offset="0" style="stop-color:#1FC3F3"/>
				<stop  offset="0.2112" style="stop-color:#26C0D4"/>
				<stop  offset="0.6701" style="stop-color:#37BA85"/>
				<stop  offset="1" style="stop-color:#44B549"/>
			</linearGradient>
			<path class="st16" d="M105.2,13.9h14c2.1,0,3.9,1.7,3.9,3.9l0,0c0,2.1-1.7,3.9-3.9,3.9h-14c-2.1,0-3.9-1.7-3.9-3.9l0,0
				C101.4,15.7,103.1,13.9,105.2,13.9z"/>
			<linearGradient id="SVGID_17_" gradientUnits="userSpaceOnUse" x1="-53.6348" y1="-17.8691" x2="170.8615" y2="259.0109">
				<stop  offset="0" style="stop-color:#1FC3F3"/>
				<stop  offset="0.2112" style="stop-color:#26C0D4"/>
				<stop  offset="0.6701" style="stop-color:#37BA85"/>
				<stop  offset="1" style="stop-color:#44B549"/>
			</linearGradient>
			<path class="st17" d="M34.9,101.1h9.4c2.1,0,3.9-1.7,3.9-3.9l0,0c0-2.1-1.7-3.9-3.9-3.9h-9.4c-2.1,0-3.9,1.7-3.9,3.9l0,0
				C31.1,99.3,32.8,101.1,34.9,101.1z"/>
			<linearGradient id="SVGID_18_" gradientUnits="userSpaceOnUse" x1="-25.211" y1="-20.3916" x2="193.4208" y2="249.2555">
				<stop  offset="0" style="stop-color:#1FC3F3"/>
				<stop  offset="0.2112" style="stop-color:#26C0D4"/>
				<stop  offset="0.6701" style="stop-color:#37BA85"/>
				<stop  offset="1" style="stop-color:#44B549"/>
			</linearGradient>
			<path class="st18" d="M91.1,131h6.7c2.1,0,3.9-1.7,3.9-3.9l0,0c0-2.1-1.7-3.9-3.9-3.9h-6.7c-2.1,0-3.9,1.7-3.9,3.9l0,0
				C87.2,129.3,89,131,91.1,131z"/>
		</g>
	</g>
</g>
</svg>
