<svg xmlns="http://www.w3.org/2000/svg" width="853" height="1056" viewBox="0 0 853 1056">
<defs>
    <style>
      .cls-1 {
        fill: #fff;
        fill-rule: evenodd;
      }
    </style>
  </defs>
  <path id="Rounded_Rectangle_612_copy_2" data-name="Rounded Rectangle 612 copy 2" class="cls-1" d="M606.464,751.43L902.192,173.082a42.35,42.35,0,1,1,75.4,38.585L681.864,790.014A42.349,42.349,0,1,1,606.464,751.43Zm-10.318,392.91L823.685,699.345a42.349,42.349,0,1,1,75.4,38.584L671.545,1182.92A42.348,42.348,0,1,1,596.146,1144.34ZM349.66,886.406L577.2,441.414A42.349,42.349,0,1,1,652.6,480L425.06,924.991A42.35,42.35,0,1,1,349.66,886.406ZM822.214,1074.95L1117.94,496.605a42.35,42.35,0,1,1,75.4,38.585L897.613,1113.54A42.35,42.35,0,1,1,822.214,1074.95Z" transform="translate(-345 -150)"/>
</svg>
