<?xml version="1.0" encoding="utf-8"?>
<!-- Generator: Adobe Illustrator 22.1.0, SVG Export Plug-In . SVG Version: 6.00 Build 0)  -->
<svg version="1.1" id="Layer_1" xmlns="http://www.w3.org/2000/svg" xmlns:xlink="http://www.w3.org/1999/xlink" x="0px" y="0px"
	 viewBox="0 0 9.9 10.2" style="enable-background:new 0 0 9.9 10.2;" xml:space="preserve">
<style type="text/css">
	.st0{fill:#FFFFFF;}
</style>
<path class="st0" d="M9.6,4.5c-0.4-0.4-1-0.4-1.4,0L5.9,6.7V1c0-0.6-0.5-1-1-1c-0.6,0-1,0.5-1,1v5.7L1.7,4.5c-0.4-0.4-1-0.4-1.4,0
	c-0.4,0.4-0.4,1,0,1.4l3.9,3.9c0.2,0.2,0.4,0.3,0.7,0.3l0,0c0.3,0,0.5-0.1,0.7-0.3l3.9-3.9C10,5.5,10,4.9,9.6,4.5z"/>
</svg>
