<svg xmlns="http://www.w3.org/2000/svg" viewBox="0 0 512 512">
    <defs>
        <style>
            .cls-1{fill:#0285cc;}
        </style>
    </defs>
    <path d="M131.5,472H60.69a20.32,20.32,0,0,1-16-7.61,20.9,20.9,0,0,1-4.23-17.51c20.77-99.77,108.81-172.62,210.44-175,1.7.06,3.39.1,5.1.1s3.43,0,5.14-.11a219.11,219.11,0,0,1,72.24,13.92,20,20,0,0,0,14.06-37.45c-3.31-1.24-6.65-2.4-10-3.51A135.86,135.86,0,0,0,392,136C392,61,331,0,256,0S120,61,120,136a135.89,135.89,0,0,0,54.64,108.92A260.07,260.07,0,0,0,1.3,438.72,60.76,60.76,0,0,0,60.69,512H131.5a20,20,0,0,0,0-40ZM160,136a96,96,0,1,1,100.67,95.89c-1.55,0-3.11-.06-4.67-.06s-3.13,0-4.69,0A96.12,96.12,0,0,1,160,136Z" class="cls-1" transform="translate(0)"/>
    <path d="M496.69,344.61A53.9,53.9,0,0,0,447.51,313H385c-22.5,0-42.13,13.26-50,33.81-1.05,2.73-2.34,6.18-3.68,10.19H200.36A20,20,0,0,0,186,363.07l-34.36,35.39a20,20,0,0,0,.09,28l35,35.61A20,20,0,0,0,201,468h65a20,20,0,0,0,0-40H209.38L194,412.3,208.81,397H346.3a20,20,0,0,0,19.43-15.24,165.08,165.08,0,0,1,6.59-20.6c1.93-5,6.79-8.16,12.74-8.16h62.41a13.64,13.64,0,0,1,12.7,7.93c5.37,12,11.78,30.61,11.83,51s-6.36,39.55-11.74,51.89A13.65,13.65,0,0,1,447.7,472H384.54a14.22,14.22,0,0,1-12.89-8.86,132.59,132.59,0,0,1-6.2-19.79,20,20,0,1,0-38.9,9.3,172.35,172.35,0,0,0,8.12,25.74A54,54,0,0,0,384.5,512h63.25a53.63,53.63,0,0,0,49.18-32.2c6.91-15.85,15.13-40.51,15.07-68S503.64,360.15,496.69,344.61Z" class="cls-1" transform="translate(0)"/>
    <circle cx="431" cy="412" r="20" class="cls-1"/>
</svg>
