<svg xmlns="http://www.w3.org/2000/svg" width="15" height="15" viewBox="0 0 15 15">
<defs>
    <style>
      .cls-1 {
        fill: #fff;
        fill-rule: evenodd;
      }
    </style>
  </defs>
  <path class="cls-1" d="M876.128,4894.44a0.917,0.917,0,0,1,.215.33c0.353,0.97.8,2.23,1.126,3.44a1.6,1.6,0,0,1-.5,1.55l-1.056.67a0.556,0.556,0,0,0,.117.3,17.725,17.725,0,0,0,1.5,1.76,15.383,15.383,0,0,0,1.744,1.48,0.5,0.5,0,0,0,.295.12l0.67-1.06a1.619,1.619,0,0,1,1.519-.51,16.436,16.436,0,0,1,3.52,1.16l0.121,0.05,0.15,0.14a1.732,1.732,0,0,1,.384,1.64,7.666,7.666,0,0,1-1.759,2.71,7.981,7.981,0,0,1-.708.63l-0.188.14-0.242.01a11.771,11.771,0,0,1-8.338-3.65l-0.056-.06a11.766,11.766,0,0,1-3.64-8.33l0-.24,0.147-.19a6.933,6.933,0,0,1,.622-0.7,7.6,7.6,0,0,1,2.717-1.76,1.724,1.724,0,0,1,1.635.37h0Zm8.424,10.59a0.461,0.461,0,0,0-.026-0.1,15.238,15.238,0,0,0-3.077-.99,0.141,0.141,0,0,1-.072.02l-0.615.98a1.28,1.28,0,0,1-.875.58,1.913,1.913,0,0,1-1.464-.38,16.655,16.655,0,0,1-1.915-1.63,17.8,17.8,0,0,1-1.651-1.93,1.918,1.918,0,0,1-.374-1.47,1.3,1.3,0,0,1,.587-0.88l0.969-.61a0.743,0.743,0,0,0,.014-0.11c-0.279-1.02-.672-2.14-1-3.05-0.027,0-.057-0.01-0.079-0.01a6.25,6.25,0,0,0-2.163,1.41c-0.121.12-.238,0.25-0.354,0.39a10.536,10.536,0,0,0,3.221,7.03l0.072,0.07a10.45,10.45,0,0,0,7,3.19c0.138-.11.268-0.23,0.392-0.35a6.357,6.357,0,0,0,1.41-2.16h0Z" transform="translate(-871 -4893.97)"/>
</svg>
